<svg width="1780" height="1745" viewBox="0 0 1780 1745" fill="none" xmlns="http://www.w3.org/2000/svg">
<path d="M1107.17 1056.95C1006.14 1366.67 736.251 1462.32 593.542 1077.63C573.917 1024.72 625.23 1005.03 661.115 981.753C685.695 965.807 698.607 951.979 697.11 937.723C690.045 870.466 659.456 683.346 659.456 683.346L656.345 677.317C656.345 677.317 657.091 675.628 654.163 678.616C651.111 681.732 644.073 714.267 616.336 714.267C591.469 714.267 566.222 702.897 554.141 624.213C549.768 595.738 552.249 521.087 583.056 507.606C595.787 502.036 607.531 500.045 618.988 506.73C630.445 513.415 605.77 483.879 733.197 375.26C816.027 304.657 946.863 294.309 999.656 306.23C1052.45 318.15 1105.24 344.583 1128.59 400.558C1156.93 468.478 1102.2 519.765 1114.22 674.448C1112.03 730.334 1115.16 852.99 964.808 894.1C936.252 901.908 945.111 944.581 987.945 955.012C1056.27 976.919 1107.22 1030.4 1107.22 1057.09" fill="white"/>
<path fill-rule="evenodd" clip-rule="evenodd" d="M1107.21 575.513L1107.37 574.058C1111.59 536.08 1115.69 499.277 1135.05 466.22C1141.64 470.832 1140.87 476.676 1138.81 482.091C1118.5 535.503 1120.36 590.993 1122.23 646.454C1122.39 651.311 1122.55 656.169 1122.7 661.024C1124.82 730.318 1107.93 793.311 1062.75 846.249C1047.08 864.621 1026.32 877.26 1005.13 888.297C983.371 899.633 978.797 909.251 985.586 933.731C985.834 934.624 986.139 935.521 986.444 936.421C987.835 940.512 989.243 944.657 985.382 948.701C980.77 953.531 975.733 952.153 970.284 950.662C970.077 950.605 969.871 950.549 969.663 950.492C918.323 936.487 872.394 911.36 829.926 879.272C823.892 874.713 818.928 868.493 814.124 862.474L814.124 862.473L813.813 862.084C811.284 858.916 810.837 853.973 814.375 851.179C817.686 848.564 820.292 850.708 823.191 853.094C823.561 853.399 823.936 853.707 824.317 854.01C847.234 872.2 872.471 884.144 902.042 887.148C915.716 888.538 929.251 888.025 942.774 887.513L942.776 887.513C950.384 887.225 957.988 886.937 965.611 886.988C976.054 887.058 984.632 882.103 992.8 877.385C993.77 876.825 994.735 876.267 995.697 875.722C1024.09 859.611 1051.06 841.547 1069.36 812.445C1085.77 786.367 1095.71 757.96 1101.56 728.067C1108.94 690.333 1108.27 652.185 1107.6 613.505C1107.37 600.899 1107.15 588.236 1107.21 575.513ZM593.964 496.884C616.291 495.048 628.727 508.577 639.197 524.245C652.074 543.515 658.934 565.358 661.973 588.419C662.483 592.287 663.012 596.4 660.731 600.19C656.228 600.809 655.802 597.154 655.733 594.412C655.166 572.846 645.814 554.034 636.414 535.827C629.705 522.838 619.842 510.253 604.426 507.058C586.851 503.414 570.685 519.564 562.739 540.715C548.022 579.892 550.462 618.449 564.155 656.419C570.146 673.034 577.61 689.96 592.555 701.553C607.689 713.293 625.909 711.222 637.02 695.631C637.655 694.739 638.327 693.857 639.001 692.973L639.001 692.973C641.037 690.3 643.088 687.606 644.185 684.573C646.334 678.628 649.618 672.974 655.635 673.802C662.593 674.761 663.912 682.466 664.562 688.485C670.476 743.177 678.686 797.521 686.898 851.872L686.898 851.872C688.935 865.357 690.973 878.842 692.975 892.332C695.627 910.181 698.698 935.816 696.638 946.719C696.493 947.493 696.409 948.256 696.329 948.985C696.014 951.839 695.756 954.188 692.095 954.751C687.126 955.517 684.88 952.571 684.27 948.002C681.904 930.262 681.251 923.454 680.233 896.319C679.247 870.015 674.413 844.088 669.581 818.167C667.828 808.762 666.074 799.358 664.505 789.936C659.161 757.852 653.929 725.312 653.459 688.775C652.749 689.851 652.054 690.912 651.37 691.956C643.673 703.712 637.389 713.308 626.391 717.045C608.135 723.252 592.162 718.656 579.367 703.901C564.783 687.083 555.311 667.945 549.982 645.715C541.503 610.341 539.932 575.688 550.929 540.727C556.2 523.954 575.102 494.155 593.964 496.884ZM629.314 629.888C633.771 633.165 637.812 636.137 641.539 624.278C640.34 580.157 626.513 551.994 604.966 550.928C616.464 566.121 627.491 580.951 628.422 601.521C623.599 599.274 620.496 595.739 617.522 592.351C615.451 589.992 613.442 587.703 610.958 585.971C609.9 585.233 608.864 584.417 607.82 583.593C602.999 579.791 597.994 575.843 589.667 578.806C593.573 584.887 598.952 589.18 604.28 593.431C610.432 598.341 616.516 603.195 620.182 610.687C609.356 618.659 604.698 629.152 610.316 641.817C615.19 652.806 622.398 661.886 636.676 662.548C636.143 655.951 631.885 651.149 627.748 646.484C622.718 640.81 617.866 635.338 620.104 627.081C623.367 625.515 626.427 627.765 629.314 629.888Z" fill="black"/>
<path d="M1512.55 1614.85L182.984 1611.41C182.984 1611.41 217.083 1392.66 281.092 1268.29C355.55 1123.62 458.156 990.783 689.024 934.167C698.232 931.909 787.052 980.379 819.935 997.022C835.177 1004.74 898.652 1000.06 898.652 1000.06L1011.65 942.856C1011.65 942.856 1144.58 986.65 1212.06 1025.49C1297.93 1074.91 1394.89 1220.7 1439.55 1334.31C1487.01 1455.05 1512.55 1614.85 1512.55 1614.85Z" fill="white"/>
<path d="M826.177 1614.85C826.177 1614.85 824.397 1481.95 825.764 1437.68C827.846 1370.3 845.696 1141.33 845.696 1141.33C845.696 1141.33 862.798 1146.23 871.702 1144.26C877.311 1143.03 902.825 1132.01 902.825 1132.01C902.825 1132.01 948.063 1243.09 957.47 1281.92C973.337 1347.4 991.416 1549.53 991.416 1549.53L994.223 1614.85L826.177 1614.85Z" fill="black"/>
<path fill-rule="evenodd" clip-rule="evenodd" d="M1488.25 1533.91C1493.91 1560.89 1499.58 1587.91 1506.07 1614.85C1510.79 1614.85 1514.41 1614.85 1517.68 1613.89C1511.87 1592.81 1508.78 1571.61 1505.71 1550.53C1503.72 1536.87 1501.73 1523.27 1499.02 1509.79C1492.66 1478.16 1485.55 1446.74 1476.57 1415.98C1466.33 1380.92 1454.69 1346.16 1440.57 1312.35C1425.98 1277.4 1410.82 1242.69 1391.35 1210.37C1364.72 1166.01 1334.24 1124.18 1300.3 1085.39C1262 1041.7 1213.21 1013.95 1162.91 990.039C1128.09 973.483 1092.54 957.024 1055.52 945.505C1029.45 937.391 1002.47 932.626 974.934 932.767C968.897 932.797 965.531 936.595 969.367 940.703C977.77 949.702 971.787 953.032 965.99 956.257C965.39 956.591 964.792 956.924 964.212 957.262C961.794 958.671 959.383 960.11 956.97 961.55C947.429 967.242 937.849 972.958 927.659 976.978C922.881 978.862 918.305 981.453 913.738 984.038C904.892 989.046 896.082 994.034 885.908 993.828C878.796 993.682 871.716 993.907 864.641 994.132L864.641 994.132C859.659 994.29 854.68 994.448 849.695 994.477C842.358 994.525 835.076 993.181 828.219 990.513C814.698 985.406 802.323 978.111 789.938 970.811C780.949 965.512 771.955 960.21 762.513 955.739C758.604 953.889 754.67 952.07 750.731 950.249C731.574 941.391 712.297 932.478 695.164 919.646C689.894 915.699 684.762 917.788 680.511 920.47C665.698 929.818 649.49 935.681 633.234 941.56C619.019 946.702 604.767 951.856 591.383 959.366C563.617 974.942 534.734 988.959 505.936 1002.87C452.424 1028.71 409.43 1068.75 370.565 1113.93C349.121 1138.75 329.697 1165.31 312.488 1193.37C292.117 1226.71 273.984 1261.44 258.214 1297.3C246.35 1324.33 236.084 1351.99 226.769 1380.06C226.365 1381.27 225.961 1382.49 225.557 1383.71L225.556 1383.71C218.021 1406.39 210.496 1429.03 205.149 1452.4C203.441 1459.85 201.569 1467.28 199.696 1474.7C196.6 1486.97 193.504 1499.24 191.159 1511.66C184.685 1545.94 179.312 1580.43 174.621 1614.84C181.094 1614.84 186.423 1614.84 192.074 1613.73C193.39 1605.05 194.537 1596.46 195.672 1587.97C197.885 1571.41 200.054 1555.18 203.346 1539.2C204.249 1534.81 205.143 1530.42 206.038 1526.03L206.039 1526.02C212.535 1494.13 219.033 1462.23 229.124 1431.15C230.021 1428.38 230.916 1425.62 231.812 1422.85L231.813 1422.85L231.814 1422.85L231.815 1422.84L231.822 1422.82C241.505 1392.93 251.192 1363.02 263.001 1333.98C274.783 1305.02 288.37 1276.88 302.93 1249.11C332.549 1192.61 368.304 1141.1 412.003 1095.24C444.215 1061.44 480.911 1033.69 522.418 1013.35C524.758 1012.21 527.133 1010.86 529.55 1009.48C538.951 1004.14 549.001 998.425 560.203 1002.85C583.111 1011.91 605.998 1021.46 627.741 1033.07C657.108 1048.74 686.001 1065.35 714.89 1081.96C723.882 1087.13 732.873 1092.3 741.878 1097.44L742.344 1097.71C762.57 1109.25 762.581 1109.26 775.459 1089.84C775.589 1089.64 775.862 1089.54 776.184 1089.43C776.351 1089.37 776.531 1089.3 776.712 1089.21C786.359 1093.49 794.924 1099.61 803.499 1105.74C808.341 1109.21 813.187 1112.67 818.232 1115.81C839.076 1128.76 841.01 1133.97 833.149 1156.03C828.571 1168.87 824.122 1181.76 819.672 1194.65L819.67 1194.66L819.668 1194.66L819.665 1194.67L819.663 1194.68L819.66 1194.68L819.658 1194.69C813.767 1211.76 807.876 1228.82 801.688 1245.77C785.516 1290.08 771.518 1335.06 760.929 1381.07C755.615 1404.16 760.094 1412.53 781.04 1423.85C785.956 1426.51 790.919 1429.07 795.883 1431.64C801.297 1434.44 806.712 1437.23 812.064 1440.15C817.416 1443.07 820.453 1447.52 819.841 1454.26C816.084 1495.4 814.81 1536.64 814.615 1577.95C814.585 1584.44 813.846 1590.92 813.107 1597.4C812.445 1603.22 811.783 1609.03 811.631 1614.84H826.175C832.089 1557.9 833.988 1500.76 835.789 1443.55C836.694 1414.84 838.818 1386.17 840.943 1357.49L840.943 1357.49C842.16 1341.07 843.377 1324.64 844.365 1308.21C845.121 1295.63 845.309 1283.04 845.496 1270.44V1270.44C845.778 1251.51 846.059 1232.58 848.269 1213.71C850.021 1198.76 851.417 1183.77 852.852 1168.35L852.852 1168.34C853.506 1161.32 854.167 1154.21 854.875 1146.98C872.116 1154.19 885.899 1147.24 899.1 1138.66C906.45 1144.85 909.515 1153.27 912.455 1161.35L912.455 1161.35L912.455 1161.35C913.263 1163.57 914.06 1165.76 914.935 1167.87C928.831 1201.46 937.842 1236.67 946.557 1272.08C951.204 1290.96 955.795 1309.76 958.986 1328.92C959.457 1331.75 959.928 1334.57 960.4 1337.39L960.4 1337.4C966.479 1373.82 972.555 1410.22 976.781 1446.96C980.629 1480.42 982.766 1514 984.904 1547.59C985.69 1559.95 986.477 1572.31 987.349 1584.67C987.6 1588.22 987.679 1591.79 987.76 1595.43C987.889 1601.25 988.022 1607.26 988.87 1613.69C993.846 1614.84 997.472 1614.84 1001.42 1613.63C1004.24 1545.17 996.33 1478.67 987.939 1412.2C987.385 1407.81 986.789 1403.43 986.194 1399.05C985.18 1391.6 984.166 1384.14 983.356 1376.64C981.086 1356 977.747 1335.49 973.353 1315.21C971.358 1305.92 968.733 1296.77 966.109 1287.62L966.109 1287.62L966.109 1287.62L966.108 1287.61C963.136 1277.25 960.166 1266.89 958.112 1256.34C954.29 1236.7 947.948 1218.04 941.489 1199.33C933.723 1176.84 924.873 1154.83 912.605 1134.42C910.721 1131.29 908.883 1127 913.021 1125.11C922.482 1120.78 929.95 1113.74 937.482 1106.65C944.358 1100.18 951.287 1093.66 959.832 1089.1C960.524 1090.68 961.16 1092.22 961.78 1093.73C963.091 1096.91 964.332 1099.93 965.891 1102.76C974.534 1118.47 979.023 1119.4 992.964 1108.27C1001.27 1101.64 1010.05 1095.74 1018.84 1089.83L1018.84 1089.83L1018.84 1089.83C1028.49 1083.35 1038.14 1076.86 1047.19 1069.4C1059.45 1059.29 1072.83 1050.82 1086.23 1042.33C1101.13 1032.9 1116.06 1023.45 1129.47 1011.73C1153.93 990.359 1192.72 1018.39 1239.38 1052.12L1240.06 1052.61C1284.32 1084.6 1317.5 1127.73 1348.1 1172.82C1369.77 1204.75 1387.97 1238.69 1405.1 1273.5C1422.13 1308.07 1436.63 1343.88 1448.47 1380.65C1460.36 1417.56 1471.24 1454.77 1479.54 1492.9C1482.51 1506.55 1485.38 1520.23 1488.25 1533.91ZM760.144 1078.01C757.894 1082.17 755.835 1084.52 751.134 1082.55C727.962 1071.26 705.815 1058.51 683.853 1045.86C648.405 1025.45 613.436 1005.31 575.406 992.043C575.434 986.724 577.846 985.592 580.057 984.555C580.166 984.504 580.275 984.453 580.382 984.402C593.782 978.142 606.778 971.015 619.292 963.066C626.225 958.433 634.311 955.932 642.592 955.859C662.934 955.78 683.354 955.52 701.813 944.434C706.67 941.516 711.549 943.041 716.515 945.962C721.92 949.144 727.308 952.359 732.697 955.574C755.2 969.001 777.706 982.43 801.48 993.49C806.158 995.667 810.639 998.349 813.393 1003.44C792.613 1025.88 774.719 1050.94 760.144 1078.01ZM1020.85 1070.14C1037.23 1055.73 1055.51 1044.04 1073.72 1032.38C1090.01 1021.96 1106.25 1011.56 1121.07 999.277C1119.59 994.872 1117.12 993.051 1114.73 991.296C1114.29 990.973 1113.85 990.652 1113.43 990.318C1096.35 976.956 1076.53 969.577 1056.76 962.22L1056.76 962.22C1050.13 959.755 1043.52 957.293 1037.01 954.609C1027.65 950.75 1016.21 946.593 1004.5 953.244C999.759 955.939 995.038 958.679 990.316 961.421C969.947 973.247 949.551 985.089 927.4 993.314C920.628 995.827 919.806 999.142 924.052 1005.18C928.09 1010.92 931.934 1016.8 935.777 1022.68C940.281 1029.58 944.784 1036.47 949.599 1043.13C957.958 1054.69 966.638 1066 975.253 1077.23L975.254 1077.24L975.257 1077.24L975.258 1077.24C978.968 1082.08 982.665 1086.9 986.319 1091.71C998.021 1084.55 1008.73 1077.99 1020.85 1070.14V1070.14ZM835.391 1016.06C840.942 1011.62 847.103 1008.41 854.564 1009.47V1009.46C879.445 1005.87 899.517 1011.55 917.27 1026.26C929.515 1036.41 930.209 1043.61 920.744 1056.56C918.506 1059.62 916.684 1062.99 914.869 1066.34L914.868 1066.34C911.735 1072.12 908.624 1077.87 903.433 1081.94C885.387 1071.91 867.405 1069.38 849.036 1080.43C843.563 1083.73 839.428 1081.91 835.302 1077.6C829.761 1071.81 824.074 1066.17 818.388 1060.53L818.387 1060.53L818.385 1060.53L818.384 1060.52L818.382 1060.52L818.382 1060.52L818.381 1060.52L818.381 1060.52L818.38 1060.52C815.704 1057.87 813.028 1055.21 810.368 1052.54C804.422 1046.57 802.532 1041.6 811.405 1035.77C816.806 1032.22 821.709 1027.89 826.618 1023.56C829.506 1021.01 832.396 1018.46 835.391 1016.06ZM805.854 1419.91C807.5 1420.44 809.03 1421.28 810.627 1422.16C813.715 1423.87 817.055 1425.7 821.967 1425.69C822.845 1405.59 823.621 1385.51 824.396 1365.43V1365.43C826.423 1312.91 828.449 1260.43 832.303 1207.95C827.535 1218.54 823.778 1229.35 820.04 1240.1C818.241 1245.28 816.446 1250.44 814.544 1255.56C798.152 1299.72 785.557 1345 774.731 1390.85C773.135 1397.62 773.368 1403.27 779.988 1406.8C787.951 1411.06 796.028 1415.08 805.854 1419.91V1419.91ZM870.304 1086.98C875.858 1085.76 881.646 1086.33 886.868 1088.62C900.236 1101.93 901.85 1112.29 893.628 1122.07C882.286 1135.57 864.949 1139.61 853.424 1131.31C844.67 1125 843.294 1115.38 845.996 1106.32C849.415 1094.86 859.188 1089.14 870.304 1086.98ZM827.921 1105.09C838.479 1103.76 833.368 1096.1 830.783 1093.5C821.695 1084.35 812.124 1075.7 801.796 1066.36L801.795 1066.36C797.985 1062.92 794.071 1059.38 790.04 1055.69C789.346 1060.7 787.086 1064.01 784.809 1067.34C783.462 1069.31 782.109 1071.29 781.072 1073.63L781.359 1073.83C796.684 1084.19 811.588 1094.28 827.923 1105.09L827.921 1105.09ZM924.317 1079.05C925.661 1077.38 927.005 1075.71 928.362 1074.05L928.364 1074.05C929.378 1072.38 930.282 1070.77 931.145 1069.23C933.76 1064.56 935.996 1060.57 939.743 1057.8C952.411 1070.56 952.419 1075.33 940.228 1085.08C938.998 1086.06 937.731 1087.01 936.464 1087.96C933.544 1090.14 930.623 1092.32 928.158 1094.95C924.51 1098.85 920.931 1102.49 915.206 1104.6C909.781 1099.97 910.447 1095.46 914.949 1090.34C918.178 1086.68 921.247 1082.87 924.317 1079.05Z" fill="black"/>
<path d="M1318.09 1614.85C1308.6 1576.46 1305.52 1537.02 1295.25 1498.99C1287.35 1469.71 1280.98 1439.85 1270.74 1411.44C1263.46 1391.26 1256.55 1370.74 1246.92 1351.29C1233.97 1325.14 1223.16 1297.9 1211.58 1271.05C1210.26 1268 1208.48 1264.42 1212.85 1261.73C1217.36 1258.96 1220.53 1261.33 1222.95 1264.58C1227.13 1270.21 1231.66 1275.84 1234.54 1282.18C1244.11 1303.35 1254.11 1324.35 1263.97 1345.33C1279.07 1377.46 1289.18 1411.23 1298.78 1445.04C1308.14 1477.97 1316.82 1511.24 1320.97 1545.64C1323.67 1567.99 1328.25 1590.14 1329.85 1613.78C1326.43 1614.85 1322.81 1614.85 1318.09 1614.85Z" fill="black"/>
<path d="M396.515 1614.85C397.958 1606.61 397.01 1598.11 397.109 1589.71C397.619 1547.07 403.394 1505.06 409.628 1462.96C415.522 1423.65 423.875 1384.76 434.635 1346.54C442.219 1319.41 454.458 1293.73 469.91 1269.98C471.987 1266.78 474.252 1263.86 478.209 1266.1C481.801 1268.13 481.92 1271.86 480.526 1275.49C477.354 1283.75 474.63 1292.26 470.736 1300.15C451.869 1338.46 444.044 1380.01 435.011 1421.38C430.51 1442 424.64 1462.25 420.918 1483.16C417.64 1501.57 414.506 1520 414.901 1538.52C415.425 1563.44 409.874 1587.91 411.116 1613.81C406.585 1614.85 402.109 1614.85 396.515 1614.85Z" fill="black"/>
<path d="M706.94 287.044C749.688 255.918 794.711 230.713 845.689 221.866C877.141 216.408 909.764 219.676 941.559 226.622C962.425 231.185 982.668 237.253 1001 248.424C1017.31 258.364 1036.22 259.923 1053.44 267.177C1093.81 284.188 1118.47 316.379 1140.53 352.842C1161.43 387.38 1176.32 425.273 1199.25 458.606C1213.52 479.344 1230.88 497.273 1246.91 516.402C1270.76 544.855 1287.42 577.126 1292.6 614.324C1295.86 637.939 1290.51 661.955 1277.56 681.789C1251.55 721.606 1252.65 764.447 1258.2 808.572C1263.15 847.944 1254.52 883.624 1229.1 913.868C1217.29 927.664 1201.14 936.818 1183.44 939.759C1161.79 943.569 1141.98 949.779 1123.48 962.576C1095.94 981.613 1063.71 979.211 1033.89 973.337C1002.76 967.205 972.961 953.653 944.536 938.532C926.715 929.053 911.633 915.478 902.329 896.983C897.944 888.274 890.565 887.54 883.54 884.69C875.113 881.271 864.694 882.056 859.09 871.746C872.972 876.023 887.157 877.771 901.311 879.188C947.918 883.855 993.732 883.939 1032.68 851.001C1048.71 837.445 1057.74 818.713 1068.12 800.952C1087.29 768.145 1105.09 734.442 1110 696.089C1113.87 665.858 1117.15 635.251 1113 604.581C1112.62 602.842 1112.41 601.073 1112.35 599.294C1114.02 563.108 1105.88 527.981 1102.13 492.365C1097.82 451.447 1084.52 415.049 1062.51 381.347C1058.94 375.892 1054.91 370.76 1050.58 364.767C1035.88 398.87 1010.43 418.25 977.644 431.659C946.712 444.31 914.421 440.713 883.105 446.646C863.301 450.402 842.124 447.7 823.936 459.125C799.64 474.386 781.241 517.101 789.013 544.707C794.738 565.039 803.997 584.097 807.256 605.375C813.527 646.321 806.779 682.631 776.559 712.433C771.454 717.469 765.923 722.6 759.701 724.533C743.439 729.599 740.689 741.812 740.21 756.43C738.752 800.906 717.597 834.706 680.933 855.754C641.737 878.253 599.689 882.761 556.689 863.254C528.415 850.423 497.066 849.395 467.36 841.935C438.861 834.779 408.72 829.745 387.991 806.17C374.731 791.283 366.663 772.325 365.045 752.254C362.801 724.315 363.119 697.097 371.593 669.628C386.543 621.168 419.866 589.558 459.464 563.211C491.043 542.199 520.707 519.255 545.11 489.481C564.363 466.235 581.435 441.188 596.102 414.672C619.418 372.056 651.121 336.899 686.531 304.738C692.983 298.891 698.971 292.537 706.94 287.044Z" fill="black"/>
<path d="M986.929 766.262C983.563 763.261 980.417 760.859 975.328 763.262C967.266 767.067 958.858 770.102 950.502 773.501C959.197 785.274 968.226 796.332 974.751 809.414C979.074 818.082 986.812 824.462 997.258 820.392C1006.81 816.67 1006.68 807.192 1005.78 798.741C1004.43 785.926 998.778 775.161 986.929 766.262Z" fill="white"/>
<path fill-rule="evenodd" clip-rule="evenodd" d="M1020.56 800.666C1020.57 799.001 1020.57 797.293 1020.62 795.535C1021.52 788.853 1019.93 783.137 1018.55 778.168C1018.02 776.275 1017.53 774.49 1017.21 772.802C1020.24 766.912 1024.35 769.355 1028.16 771.622C1032.11 773.973 1035.75 776.136 1037.53 768.61C1039.33 761.045 1035.37 752.398 1026.85 747.426C1018.88 756.454 1010.17 755.451 1000.93 750.235C994.278 746.484 986.963 744.412 979.694 747.712C968.366 752.853 956.381 754.52 944.389 756.188C940.572 756.719 936.754 757.251 932.957 757.894C932.126 758.035 931.295 758.179 930.465 758.324C918.912 760.336 907.476 762.327 897.032 753.455C893.573 750.518 889.56 752.444 886.495 755.448C883.35 758.529 882.372 762.322 884.328 766.333C885.941 769.643 888.447 771.243 892.628 771.284C916.337 771.514 936.249 780.502 951.138 799.721C954.102 803.549 956.738 807.637 959.374 811.726C961.01 814.263 962.646 816.8 964.361 819.276C978.574 839.8 1005.91 843.452 1017.75 818.902C1020.53 813.144 1020.55 807.233 1020.56 800.666ZM975.328 763.262C980.417 760.86 983.563 763.261 986.929 766.262C998.778 775.161 1004.43 785.927 1005.78 798.741C1006.68 807.192 1006.81 816.67 997.258 820.392C986.812 824.462 979.074 818.082 974.751 809.414C969.387 798.66 962.331 789.274 955.16 779.734C953.607 777.669 952.049 775.596 950.502 773.501C952.996 772.487 955.494 771.505 957.987 770.525C963.846 768.222 969.672 765.932 975.328 763.262Z" fill="black"/>
<path d="M990.404 586.816C989.813 572.061 986.005 558.37 990.827 544.922C992.033 541.553 992.05 535.967 997.583 536.702C1003.2 537.448 1002.19 542.451 1001.64 546.232C997.008 578.203 1008.78 607.283 1017.04 636.905C1019.77 646.701 1023.76 655.919 1023.26 666.557C1022.46 683.713 1011.71 694.105 995.251 691.175C989.35 689.991 983.237 690.64 977.7 693.038C963.534 698.88 951.135 687.892 937.368 687.563C933.218 687.458 930.672 679.935 930.321 674.347C930.152 671.653 930.611 668.912 933.761 667.984C935.908 667.181 938.295 668.217 939.223 670.354C942.861 677.706 948.637 673.725 953.873 674.664C966.001 676.836 977.355 676.097 989.324 675.625C995.239 675.391 1001.29 679.059 1006.91 673.904C1012.84 668.456 1010.99 662.095 1009.15 655.487C1002.9 632.989 993.12 611.514 990.404 586.816Z" fill="black"/>
<path d="M842.238 579.096C847.324 566.539 851.305 548.427 866.801 555.61C887.891 565.387 880.934 587.662 876.669 605.014C875.06 611.562 861.861 621.613 858.053 619.99C841.442 612.906 838.406 597.31 842.238 579.096Z" fill="black"/>
<path d="M1073.57 617.475C1064.82 625.253 1056.26 625.403 1050.99 615.91C1041.69 599.179 1042.2 581.669 1054.38 566.632C1056.92 563.491 1068.4 562.845 1070.98 565.649C1085.2 581.151 1085.81 598.734 1073.57 617.475Z" fill="black"/>
<path d="M820.984 508.693C849.234 485.589 881.678 488.753 913.586 489.775C919.436 489.962 926.082 491.179 928.139 498.58C930.369 506.605 923.487 508.809 919.164 512.892C903.264 527.907 885.625 530.716 865.928 521.931C854.894 517.009 844.079 518.752 833.472 523.6C831.494 524.504 829.558 525.515 827.543 526.318C821.072 528.897 812.973 532.619 808.601 525.847C804.091 518.864 814.293 516.544 817.066 511.545C817.642 510.492 819.071 509.921 820.984 508.693Z" fill="black"/>
<path d="M1090.38 500.011C1098.18 504.515 1105.08 510.495 1110.7 517.632C1113.27 520.844 1115.86 524.308 1113.72 528.391C1111.39 532.808 1106.92 531.187 1103.17 530.7C1090.45 529.045 1078.97 521.103 1065.44 523.189C1060.36 523.974 1055.36 523.868 1050.24 525.75C1036.91 530.653 1018.51 519.053 1016.4 505.088C1015.55 499.471 1017.43 496.221 1023.44 494.642C1046.09 488.689 1068.38 485.252 1090.38 500.011Z" fill="black"/>
</svg>
